<?xml version="1.0" encoding="UTF-8" standalone="no"?>
<!DOCTYPE svg PUBLIC "-//W3C//DTD SVG 1.1//EN"
 "http://www.w3.org/Graphics/SVG/1.1/DTD/svg11.dtd">
<!-- Generated by graphviz version 13.1.0 (20250701.0955)
 -->
<!-- Title: G Pages: 1 -->
<svg width="721pt" height="277pt"
 viewBox="0.00 0.00 721.00 277.00" xmlns="http://www.w3.org/2000/svg" xmlns:xlink="http://www.w3.org/1999/xlink">
<g id="graph0" class="graph" transform="scale(1 1) rotate(0) translate(21.6 255.35)">
<title>G</title>
<polygon fill="#111111" stroke="none" points="-21.6,21.6 -21.6,-255.35 699.35,-255.35 699.35,21.6 -21.6,21.6"/>
<!-- core/Board.js -->
<g id="node1" class="node">
<title>core/Board.js</title>
<path fill="none" stroke="#c6c5fe" d="M352.46,-128.75C352.46,-128.75 272.79,-128.75 272.79,-128.75 268.83,-128.75 264.88,-124.79 264.88,-120.83 264.88,-120.83 264.88,-112.92 264.88,-112.92 264.88,-108.96 268.83,-105 272.79,-105 272.79,-105 352.46,-105 352.46,-105 356.42,-105 360.38,-108.96 360.38,-112.92 360.38,-112.92 360.38,-120.83 360.38,-120.83 360.38,-124.79 356.42,-128.75 352.46,-128.75"/>
<text xml:space="preserve" text-anchor="middle" x="312.62" y="-111.45" font-family="Arial" font-size="14.00" fill="#c6c5fe">core/Board.js</text>
</g>
<!-- core/pieces/Bishop.js -->
<g id="node2" class="node">
<title>core/pieces/Bishop.js</title>
<path fill="none" stroke="#c6c5fe" d="M533.83,-233.75C533.83,-233.75 406.17,-233.75 406.17,-233.75 402.21,-233.75 398.25,-229.79 398.25,-225.83 398.25,-225.83 398.25,-217.92 398.25,-217.92 398.25,-213.96 402.21,-210 406.17,-210 406.17,-210 533.83,-210 533.83,-210 537.79,-210 541.75,-213.96 541.75,-217.92 541.75,-217.92 541.75,-225.83 541.75,-225.83 541.75,-229.79 537.79,-233.75 533.83,-233.75"/>
<text xml:space="preserve" text-anchor="middle" x="470" y="-216.45" font-family="Arial" font-size="14.00" fill="#c6c5fe">core/pieces/Bishop.js</text>
</g>
<!-- core/Board.js&#45;&gt;core/pieces/Bishop.js -->
<g id="edge1" class="edge">
<title>core/Board.js&#45;&gt;core/pieces/Bishop.js</title>
<path fill="none" stroke="#757575" d="M322.63,-129.06C336.74,-147.31 365.84,-181.66 398.25,-200.88 400.85,-202.41 403.57,-203.85 406.36,-205.18"/>
<polygon fill="#757575" stroke="#757575" points="404.77,-208.31 415.35,-209 407.51,-201.87 404.77,-208.31"/>
</g>
<!-- core/pieces/King.js -->
<g id="node3" class="node">
<title>core/pieces/King.js</title>
<path fill="none" stroke="#c6c5fe" d="M526.71,-191.75C526.71,-191.75 413.29,-191.75 413.29,-191.75 409.33,-191.75 405.38,-187.79 405.38,-183.83 405.38,-183.83 405.38,-175.92 405.38,-175.92 405.38,-171.96 409.33,-168 413.29,-168 413.29,-168 526.71,-168 526.71,-168 530.67,-168 534.62,-171.96 534.62,-175.92 534.62,-175.92 534.62,-183.83 534.62,-183.83 534.62,-187.79 530.67,-191.75 526.71,-191.75"/>
<text xml:space="preserve" text-anchor="middle" x="470" y="-174.45" font-family="Arial" font-size="14.00" fill="#c6c5fe">core/pieces/King.js</text>
</g>
<!-- core/Board.js&#45;&gt;core/pieces/King.js -->
<g id="edge2" class="edge">
<title>core/Board.js&#45;&gt;core/pieces/King.js</title>
<path fill="none" stroke="#757575" d="M335.77,-129.18C352.57,-138.19 376.42,-150.29 398.25,-158.88 402.87,-160.69 407.71,-162.44 412.6,-164.1"/>
<polygon fill="#757575" stroke="#757575" points="411.28,-167.35 421.88,-167.11 413.44,-160.69 411.28,-167.35"/>
</g>
<!-- core/pieces/Knight.js -->
<g id="node4" class="node">
<title>core/pieces/Knight.js</title>
<path fill="none" stroke="#c6c5fe" d="M532.33,-149.75C532.33,-149.75 407.67,-149.75 407.67,-149.75 403.71,-149.75 399.75,-145.79 399.75,-141.83 399.75,-141.83 399.75,-133.92 399.75,-133.92 399.75,-129.96 403.71,-126 407.67,-126 407.67,-126 532.33,-126 532.33,-126 536.29,-126 540.25,-129.96 540.25,-133.92 540.25,-133.92 540.25,-141.83 540.25,-141.83 540.25,-145.79 536.29,-149.75 532.33,-149.75"/>
<text xml:space="preserve" text-anchor="middle" x="470" y="-132.45" font-family="Arial" font-size="14.00" fill="#c6c5fe">core/pieces/Knight.js</text>
</g>
<!-- core/Board.js&#45;&gt;core/pieces/Knight.js -->
<g id="edge3" class="edge">
<title>core/Board.js&#45;&gt;core/pieces/Knight.js</title>
<path fill="none" stroke="#757575" d="M360.66,-123.23C369.46,-124.42 378.88,-125.69 388.36,-126.98"/>
<polygon fill="#757575" stroke="#757575" points="387.6,-130.4 397.98,-128.28 388.53,-123.47 387.6,-130.4"/>
</g>
<!-- core/pieces/Pawn.js -->
<g id="node5" class="node">
<title>core/pieces/Pawn.js</title>
<path fill="none" stroke="#c6c5fe" d="M530.08,-107.75C530.08,-107.75 409.92,-107.75 409.92,-107.75 405.96,-107.75 402,-103.79 402,-99.83 402,-99.83 402,-91.92 402,-91.92 402,-87.96 405.96,-84 409.92,-84 409.92,-84 530.08,-84 530.08,-84 534.04,-84 538,-87.96 538,-91.92 538,-91.92 538,-99.83 538,-99.83 538,-103.79 534.04,-107.75 530.08,-107.75"/>
<text xml:space="preserve" text-anchor="middle" x="470" y="-90.45" font-family="Arial" font-size="14.00" fill="#c6c5fe">core/pieces/Pawn.js</text>
</g>
<!-- core/Board.js&#45;&gt;core/pieces/Pawn.js -->
<g id="edge4" class="edge">
<title>core/Board.js&#45;&gt;core/pieces/Pawn.js</title>
<path fill="none" stroke="#757575" d="M360.66,-110.52C370.18,-109.23 380.42,-107.85 390.67,-106.46"/>
<polygon fill="#757575" stroke="#757575" points="390.83,-109.97 400.27,-105.16 389.89,-103.04 390.83,-109.97"/>
</g>
<!-- core/pieces/Queen.js -->
<g id="node6" class="node">
<title>core/pieces/Queen.js</title>
<path fill="none" stroke="#c6c5fe" d="M533.83,-65.75C533.83,-65.75 406.17,-65.75 406.17,-65.75 402.21,-65.75 398.25,-61.79 398.25,-57.83 398.25,-57.83 398.25,-49.92 398.25,-49.92 398.25,-45.96 402.21,-42 406.17,-42 406.17,-42 533.83,-42 533.83,-42 537.79,-42 541.75,-45.96 541.75,-49.92 541.75,-49.92 541.75,-57.83 541.75,-57.83 541.75,-61.79 537.79,-65.75 533.83,-65.75"/>
<text xml:space="preserve" text-anchor="middle" x="470" y="-48.45" font-family="Arial" font-size="14.00" fill="#c6c5fe">core/pieces/Queen.js</text>
</g>
<!-- core/Board.js&#45;&gt;core/pieces/Queen.js -->
<g id="edge5" class="edge">
<title>core/Board.js&#45;&gt;core/pieces/Queen.js</title>
<path fill="none" stroke="#757575" d="M343.72,-104.55C349.91,-101.83 356.34,-98.86 362.25,-95.88 378.78,-87.52 381.25,-82.23 398.25,-74.88 402.3,-73.12 406.54,-71.46 410.85,-69.9"/>
<polygon fill="#757575" stroke="#757575" points="411.86,-73.25 420.2,-66.71 409.6,-66.63 411.86,-73.25"/>
</g>
<!-- core/pieces/Rook.js -->
<g id="node7" class="node">
<title>core/pieces/Rook.js</title>
<path fill="none" stroke="#c6c5fe" d="M528.96,-23.75C528.96,-23.75 411.04,-23.75 411.04,-23.75 407.08,-23.75 403.12,-19.79 403.12,-15.83 403.12,-15.83 403.12,-7.92 403.12,-7.92 403.12,-3.96 407.08,0 411.04,0 411.04,0 528.96,0 528.96,0 532.92,0 536.88,-3.96 536.88,-7.92 536.88,-7.92 536.88,-15.83 536.88,-15.83 536.88,-19.79 532.92,-23.75 528.96,-23.75"/>
<text xml:space="preserve" text-anchor="middle" x="470" y="-6.45" font-family="Arial" font-size="14.00" fill="#c6c5fe">core/pieces/Rook.js</text>
</g>
<!-- core/Board.js&#45;&gt;core/pieces/Rook.js -->
<g id="edge6" class="edge">
<title>core/Board.js&#45;&gt;core/pieces/Rook.js</title>
<path fill="none" stroke="#757575" d="M349.26,-104.74C353.93,-102.24 358.41,-99.31 362.25,-95.88 386.29,-74.38 372.97,-52.9 398.25,-32.88 399.73,-31.7 401.28,-30.59 402.88,-29.54"/>
<polygon fill="#757575" stroke="#757575" points="404.16,-32.83 411.21,-24.92 400.77,-26.71 404.16,-32.83"/>
</g>
<!-- core/Pieces.js -->
<g id="node12" class="node">
<title>core/Pieces.js</title>
<path fill="none" stroke="#cfffac" d="M669.83,-128.75C669.83,-128.75 585.67,-128.75 585.67,-128.75 581.71,-128.75 577.75,-124.79 577.75,-120.83 577.75,-120.83 577.75,-112.92 577.75,-112.92 577.75,-108.96 581.71,-105 585.67,-105 585.67,-105 669.83,-105 669.83,-105 673.79,-105 677.75,-108.96 677.75,-112.92 677.75,-112.92 677.75,-120.83 677.75,-120.83 677.75,-124.79 673.79,-128.75 669.83,-128.75"/>
<text xml:space="preserve" text-anchor="middle" x="627.75" y="-111.45" font-family="Arial" font-size="14.00" fill="#cfffac">core/Pieces.js</text>
</g>
<!-- core/pieces/Bishop.js&#45;&gt;core/Pieces.js -->
<g id="edge10" class="edge">
<title>core/pieces/Bishop.js&#45;&gt;core/Pieces.js</title>
<path fill="none" stroke="#757575" d="M523.25,-209.58C529.69,-207.15 536.02,-204.27 541.75,-200.88 569.55,-184.43 594.98,-156.92 610.63,-137.88"/>
<polygon fill="#757575" stroke="#757575" points="613.24,-140.23 616.75,-130.24 607.77,-135.86 613.24,-140.23"/>
</g>
<!-- core/pieces/King.js&#45;&gt;core/Pieces.js -->
<g id="edge11" class="edge">
<title>core/pieces/King.js&#45;&gt;core/Pieces.js</title>
<path fill="none" stroke="#757575" d="M516.68,-167.56C525.1,-164.94 533.76,-162.01 541.75,-158.88 559.55,-151.89 578.71,-142.6 594.32,-134.53"/>
<polygon fill="#757575" stroke="#757575" points="595.93,-137.63 603.16,-129.88 592.67,-131.43 595.93,-137.63"/>
</g>
<!-- core/pieces/Knight.js&#45;&gt;core/Pieces.js -->
<g id="edge12" class="edge">
<title>core/pieces/Knight.js&#45;&gt;core/Pieces.js</title>
<path fill="none" stroke="#757575" d="M540.68,-128.48C549.25,-127.32 557.96,-126.15 566.38,-125.01"/>
<polygon fill="#757575" stroke="#757575" points="566.7,-128.5 576.15,-123.7 565.77,-121.57 566.7,-128.5"/>
</g>
<!-- core/pieces/Pawn.js&#45;&gt;core/Pieces.js -->
<g id="edge13" class="edge">
<title>core/pieces/Pawn.js&#45;&gt;core/Pieces.js</title>
<path fill="none" stroke="#757575" d="M538.41,-104.96C547.66,-106.21 557.11,-107.48 566.22,-108.71"/>
<polygon fill="#757575" stroke="#757575" points="565.67,-112.17 576.05,-110.04 566.61,-105.23 565.67,-112.17"/>
</g>
<!-- core/pieces/Queen.js&#45;&gt;core/Pieces.js -->
<g id="edge14" class="edge">
<title>core/pieces/Queen.js&#45;&gt;core/Pieces.js</title>
<path fill="none" stroke="#757575" d="M516.68,-66.19C525.1,-68.81 533.76,-71.74 541.75,-74.88 559.55,-81.86 578.71,-91.15 594.32,-99.22"/>
<polygon fill="#757575" stroke="#757575" points="592.67,-102.32 603.16,-103.87 595.93,-96.12 592.67,-102.32"/>
</g>
<!-- core/pieces/Rook.js&#45;&gt;core/Pieces.js -->
<g id="edge15" class="edge">
<title>core/pieces/Rook.js&#45;&gt;core/Pieces.js</title>
<path fill="none" stroke="#757575" d="M523.25,-24.17C529.69,-26.6 536.02,-29.48 541.75,-32.88 569.55,-49.32 594.98,-76.83 610.63,-95.87"/>
<polygon fill="#757575" stroke="#757575" points="607.77,-97.89 616.75,-103.51 613.24,-93.52 607.77,-97.89"/>
</g>
<!-- core/Game.js -->
<g id="node8" class="node">
<title>core/Game.js</title>
<path fill="none" stroke="#c6c5fe" d="M219.08,-85.75C219.08,-85.75 137.17,-85.75 137.17,-85.75 133.21,-85.75 129.25,-81.79 129.25,-77.83 129.25,-77.83 129.25,-69.92 129.25,-69.92 129.25,-65.96 133.21,-62 137.17,-62 137.17,-62 219.08,-62 219.08,-62 223.04,-62 227,-65.96 227,-69.92 227,-69.92 227,-77.83 227,-77.83 227,-81.79 223.04,-85.75 219.08,-85.75"/>
<text xml:space="preserve" text-anchor="middle" x="178.12" y="-68.45" font-family="Arial" font-size="14.00" fill="#c6c5fe">core/Game.js</text>
</g>
<!-- core/Game.js&#45;&gt;core/Board.js -->
<g id="edge7" class="edge">
<title>core/Game.js&#45;&gt;core/Board.js</title>
<path fill="none" stroke="#757575" d="M217.09,-86.2C231.37,-90.83 247.8,-96.16 262.92,-101.07"/>
<polygon fill="#757575" stroke="#757575" points="261.62,-104.33 272.21,-104.08 263.78,-97.67 261.62,-104.33"/>
</g>
<!-- ui/Events.js -->
<g id="node9" class="node">
<title>ui/Events.js</title>
<path fill="none" stroke="#cfffac" d="M347.21,-44.75C347.21,-44.75 278.04,-44.75 278.04,-44.75 274.08,-44.75 270.12,-40.79 270.12,-36.83 270.12,-36.83 270.12,-28.92 270.12,-28.92 270.12,-24.96 274.08,-21 278.04,-21 278.04,-21 347.21,-21 347.21,-21 351.17,-21 355.12,-24.96 355.12,-28.92 355.12,-28.92 355.12,-36.83 355.12,-36.83 355.12,-40.79 351.17,-44.75 347.21,-44.75"/>
<text xml:space="preserve" text-anchor="middle" x="312.62" y="-27.45" font-family="Arial" font-size="14.00" fill="#cfffac">ui/Events.js</text>
</g>
<!-- core/Game.js&#45;&gt;ui/Events.js -->
<g id="edge8" class="edge">
<title>core/Game.js&#45;&gt;ui/Events.js</title>
<path fill="none" stroke="#757575" d="M218.88,-61.57C232.11,-57.48 247.03,-52.86 260.98,-48.55"/>
<polygon fill="#757575" stroke="#757575" points="261.93,-51.91 270.45,-45.62 259.87,-45.23 261.93,-51.91"/>
</g>
<!-- ui/Renderer.js -->
<g id="node10" class="node">
<title>ui/Renderer.js</title>
<path fill="none" stroke="#cfffac" d="M354.33,-86.75C354.33,-86.75 270.92,-86.75 270.92,-86.75 266.96,-86.75 263,-82.79 263,-78.83 263,-78.83 263,-70.92 263,-70.92 263,-66.96 266.96,-63 270.92,-63 270.92,-63 354.33,-63 354.33,-63 358.29,-63 362.25,-66.96 362.25,-70.92 362.25,-70.92 362.25,-78.83 362.25,-78.83 362.25,-82.79 358.29,-86.75 354.33,-86.75"/>
<text xml:space="preserve" text-anchor="middle" x="312.62" y="-69.45" font-family="Arial" font-size="14.00" fill="#cfffac">ui/Renderer.js</text>
</g>
<!-- core/Game.js&#45;&gt;ui/Renderer.js -->
<g id="edge9" class="edge">
<title>core/Game.js&#45;&gt;ui/Renderer.js</title>
<path fill="none" stroke="#757575" d="M227.34,-74.24C235.18,-74.3 243.39,-74.36 251.48,-74.42"/>
<polygon fill="#757575" stroke="#757575" points="251.24,-77.92 261.27,-74.49 251.3,-70.92 251.24,-77.92"/>
</g>
<!-- core/Move.js -->
<g id="node11" class="node">
<title>core/Move.js</title>
<path fill="none" stroke="#cfffac" d="M85.33,-107.75C85.33,-107.75 7.92,-107.75 7.92,-107.75 3.96,-107.75 0,-103.79 0,-99.83 0,-99.83 0,-91.92 0,-91.92 0,-87.96 3.96,-84 7.92,-84 7.92,-84 85.33,-84 85.33,-84 89.29,-84 93.25,-87.96 93.25,-91.92 93.25,-91.92 93.25,-99.83 93.25,-99.83 93.25,-103.79 89.29,-107.75 85.33,-107.75"/>
<text xml:space="preserve" text-anchor="middle" x="46.62" y="-90.45" font-family="Arial" font-size="14.00" fill="#cfffac">core/Move.js</text>
</g>
<!-- index.js -->
<g id="node13" class="node">
<title>index.js</title>
<path fill="none" stroke="#c6c5fe" d="M69.58,-65.75C69.58,-65.75 23.67,-65.75 23.67,-65.75 19.71,-65.75 15.75,-61.79 15.75,-57.83 15.75,-57.83 15.75,-49.92 15.75,-49.92 15.75,-45.96 19.71,-42 23.67,-42 23.67,-42 69.58,-42 69.58,-42 73.54,-42 77.5,-45.96 77.5,-49.92 77.5,-49.92 77.5,-57.83 77.5,-57.83 77.5,-61.79 73.54,-65.75 69.58,-65.75"/>
<text xml:space="preserve" text-anchor="middle" x="46.62" y="-48.45" font-family="Arial" font-size="14.00" fill="#c6c5fe">index.js</text>
</g>
<!-- index.js&#45;&gt;core/Game.js -->
<g id="edge16" class="edge">
<title>index.js&#45;&gt;core/Game.js</title>
<path fill="none" stroke="#757575" d="M77.99,-58.56C89.96,-60.41 104.15,-62.6 117.99,-64.74"/>
<polygon fill="#757575" stroke="#757575" points="117.05,-68.14 127.47,-66.21 118.12,-61.22 117.05,-68.14"/>
</g>
<!-- index.js&#45;&gt;ui/Events.js -->
<g id="edge17" class="edge">
<title>index.js&#45;&gt;ui/Events.js</title>
<path fill="none" stroke="#757575" d="M77.91,-51.47C121.95,-47.96 204.31,-41.41 258.55,-37.1"/>
<polygon fill="#757575" stroke="#757575" points="258.82,-40.59 268.51,-36.3 258.26,-33.61 258.82,-40.59"/>
</g>
<!-- test.js -->
<g id="node14" class="node">
<title>test.js</title>
<path fill="none" stroke="#cfffac" d="M65.71,-149.75C65.71,-149.75 27.54,-149.75 27.54,-149.75 23.58,-149.75 19.62,-145.79 19.62,-141.83 19.62,-141.83 19.62,-133.92 19.62,-133.92 19.62,-129.96 23.58,-126 27.54,-126 27.54,-126 65.71,-126 65.71,-126 69.67,-126 73.62,-129.96 73.62,-133.92 73.62,-133.92 73.62,-141.83 73.62,-141.83 73.62,-145.79 69.67,-149.75 65.71,-149.75"/>
<text xml:space="preserve" text-anchor="middle" x="46.62" y="-132.45" font-family="Arial" font-size="14.00" fill="#cfffac">test.js</text>
</g>
</g>
</svg>
